<?xml version="1.0" encoding="UTF-8"?>
<svg version="1.1" xmlns="http://www.w3.org/2000/svg" width="168" height="27">
<path d="M0 0 C2.26849666 3.65172633 2.3895951 7.0127118 2.625 11.25 C2.73714844 13.14492188 2.73714844 13.14492188 2.8515625 15.078125 C2.90054688 16.04234375 2.94953125 17.0065625 3 18 C3.89749718 18.00879936 3.89749718 18.00879936 4.81312561 18.01777649 C11.05923604 18.08187467 17.30483905 18.1663365 23.55053711 18.26245117 C25.87924495 18.29563748 28.20803202 18.32368888 30.53686523 18.34643555 C33.89080457 18.38009669 37.24402206 18.43241999 40.59765625 18.48828125 C41.63334244 18.49467117 42.66902863 18.5010611 43.73609924 18.50764465 C50.73664062 18.64897204 56.09445247 19.24737603 61.375 24.25 C63.31214306 27.52824211 63.70442649 30.2314377 64 34 C65.65 33.34 67.3 32.68 69 32 C68.55090939 33.48199902 68.09043436 34.96055236 67.625 36.4375 C67.36976563 37.26121094 67.11453125 38.08492187 66.8515625 38.93359375 C66 41 66 41 64 42 C63.34569341 44.25140949 62.77770371 46.52809842 62.25 48.8125 C60.97433087 54.1110445 59.35788693 58.57326017 56.6875 63.375 C53.76678476 68.95763292 53.44920778 71.98743127 55 78 C55.32989178 79.44461512 55.65638136 80.89000915 55.98046875 82.3359375 C56.94148863 86.569085 57.95972302 90.78566859 59 95 C52.37101527 93.91012824 46.01010382 92.53272603 39.60546875 90.48828125 C34.13147313 89.46242 30.1559334 91.23687729 25.4375 93.875 C11.35965831 101.0519389 -6.70311829 102.75404485 -21.98046875 98.16015625 C-41.60410947 90.62041331 -55.72525829 79.26723978 -65.1875 60.09375 C-66 58 -66 58 -66 55 C-49.5 55 -33 55 -16 55 C-15.505 67.375 -15.505 67.375 -15 80 C-13.68 80.33 -12.36 80.66 -11 81 C-8.44090424 79.27075033 -8.44090424 79.27075033 -5.859375 76.64453125 C-5.34775818 76.15588089 -4.83614136 75.66723053 -4.309021 75.16377258 C-3.16113958 74.06257297 -2.01934256 72.9550082 -0.88256836 71.84234619 C1.12075929 69.8818208 3.1404949 67.93921403 5.16210938 65.99755859 C8.94646365 62.35065404 12.6957439 58.66987216 16.43164062 54.97338867 C17.99259502 53.43429684 19.55979553 51.90151711 21.1328125 50.37475586 C23.4311865 48.14299109 25.70951393 45.89241496 27.984375 43.63671875 C28.69043884 42.95848557 29.39650269 42.28025238 30.1239624 41.58146667 C30.76593567 40.9367189 31.40790894 40.29197113 32.06933594 39.62768555 C32.63714783 39.07018112 33.20495972 38.5126767 33.78997803 37.9382782 C35.52955768 35.53255395 35.52955768 35.53255395 35 30 C14.21 29.67 -6.58 29.34 -28 29 C-24.29355198 23.44032797 -21.0456024 19.66987951 -15.9375 15.5 C-13.01430013 13.17773025 -13.01430013 13.17773025 -11.125 10.625 C-8.14840858 6.94803412 -4.59252494 4.05816769 -1 1 C-0.67 0.67 -0.34 0.34 0 0 Z " fill="#5831D8" transform="translate(244,45)"/>
<path d="M0 0 C19.8681258 -0.68102369 36.02304657 6.28491894 50.90625 19.1328125 C58.91958323 26.65206738 63.15709221 34.76815163 66.62109375 45.16015625 C50.12109375 45.16015625 33.62109375 45.16015625 16.62109375 45.16015625 C16.12609375 32.78515625 16.12609375 32.78515625 15.62109375 20.16015625 C13.97109375 19.83015625 12.32109375 19.50015625 10.62109375 19.16015625 C8.18008405 20.70098473 8.18008405 20.70098473 5.93847656 23.09814453 C5.04114807 23.98301544 4.14381958 24.86788635 3.21929932 25.77957153 C2.25365343 26.76259623 1.2886417 27.74624423 0.32421875 28.73046875 C-0.6741283 29.72985322 -1.67351321 30.72820188 -2.67388916 31.72555542 C-4.76794341 33.81978913 -6.85127437 35.92397632 -8.92724609 38.03613281 C-11.5858381 40.7400423 -14.26594674 43.42130745 -16.95402145 46.09587288 C-19.02063128 48.15579062 -21.07711867 50.22557487 -23.13053131 52.2986412 C-24.11503716 53.29083427 -25.10224079 54.28035806 -26.09218597 55.26712418 C-27.4759834 56.65017781 -28.84526557 58.04770841 -30.21386719 59.44580078 C-30.99598572 60.23713409 -31.77810425 61.02846741 -32.58392334 61.84378052 C-34.5285442 64.35325988 -35.03943184 66.03663724 -35.37890625 69.16015625 C-32.66758415 70.5158173 -30.49582627 70.3224671 -27.46044922 70.36547852 C-25.59874588 70.39539635 -25.59874588 70.39539635 -23.69943237 70.42591858 C-22.33998745 70.44290285 -20.9805412 70.45978166 -19.62109375 70.4765625 C-18.23389058 70.49713206 -16.84669368 70.51812853 -15.45950317 70.53953552 C-11.8066312 70.59475606 -8.15370266 70.64416536 -4.50073242 70.69238281 C-0.77387451 70.742598 2.95290116 70.79828396 6.6796875 70.85351562 C13.99341996 70.96109696 21.30722076 71.06254193 28.62109375 71.16015625 C24.91568265 75.57620801 21.11293753 79.79616159 17.0390625 83.875 C16.53941483 84.3756044 16.03976715 84.8762088 15.52497864 85.39198303 C14.48345494 86.43417988 13.44069704 87.47514473 12.39672852 88.51489258 C10.7912886 90.11490287 9.19135067 91.72027935 7.59179688 93.32617188 C6.57453984 94.34276931 5.55697328 95.35905715 4.5390625 96.375 C3.61891357 97.294021 2.69876465 98.21304199 1.75073242 99.15991211 C-0.37890625 101.16015625 -0.37890625 101.16015625 -1.37890625 101.16015625 C-1.87390625 92.25015625 -1.87390625 92.25015625 -2.37890625 83.16015625 C-4.78546393 81.95687741 -6.30540106 82.02937794 -8.99291992 82.01831055 C-9.95119186 82.01127609 -10.90946381 82.00424164 -11.89677429 81.99699402 C-13.45607414 81.9907476 -13.45607414 81.9907476 -15.046875 81.984375 C-17.24154597 81.96116953 -19.43620746 81.9370519 -21.63085938 81.91210938 C-25.09584837 81.87704013 -28.56049017 81.84767921 -32.02563477 81.83422852 C-35.36647856 81.81871635 -38.706302 81.77847534 -42.046875 81.734375 C-43.59099312 81.73723763 -43.59099312 81.73723763 -45.16630554 81.74015808 C-51.43989961 81.63394251 -55.26027729 80.86476611 -60.37890625 77.16015625 C-64.88194332 71.77308737 -64.01058799 64.9123545 -63.59472656 58.26904297 C-61.90433924 41.75143474 -52.59284764 26.0870488 -40.19140625 15.34765625 C-28.36940602 6.22451602 -14.85237828 0.99991381 0 0 Z " fill="#3A59ED" transform="translate(237.37890625,10.83984375)"/>
<path d="M0 0 C1.20140625 -0.00322266 2.4028125 -0.00644531 3.640625 -0.00976562 C12.02496803 0.04079785 20.39821735 0.09659183 27.5 5.0625 C28.19609375 5.53171875 28.8921875 6.0009375 29.609375 6.484375 C36.33725121 12.2300795 36.33725121 12.2300795 37.21603394 16.66375732 C37.39433788 19.51642272 37.41679293 22.3294661 37.37890625 25.1875 C37.38131821 26.23019043 37.38373016 27.27288086 37.38621521 28.34716797 C37.38523817 30.54593723 37.37187896 32.74473152 37.34692383 34.94335938 C37.31261102 38.30163458 37.32627508 41.65727755 37.34570312 45.015625 C37.33880437 47.15626116 37.32913173 49.29689055 37.31640625 51.4375 C37.32384605 52.93772705 37.32384605 52.93772705 37.33143616 54.46826172 C37.23179616 60.39001411 36.67011292 63.79013002 32.75 68.3125 C30.41796875 70.140625 30.41796875 70.140625 27.9375 71.5625 C27.12667969 72.04203125 26.31585938 72.5215625 25.48046875 73.015625 C17.61666835 76.75064894 9.80713711 76.6849225 1.29980469 76.68310547 C-0.98058692 76.6874629 -3.25901422 76.72380002 -5.5390625 76.76171875 C-17.34635797 76.85415511 -26.73778006 75.28417728 -35.69140625 67.09375 C-38.55549669 63.82050378 -39.49880989 61.05507866 -39.54052734 56.73095703 C-39.55328705 55.82967072 -39.56604675 54.9283844 -39.57919312 53.99978638 C-39.58141876 53.03306 -39.58364441 52.06633362 -39.5859375 51.0703125 C-39.5925943 50.06918427 -39.5992511 49.06805603 -39.60610962 48.03659058 C-39.61622817 45.92008296 -39.62092689 43.8035435 -39.62060547 41.68701172 C-39.62497475 38.45616823 -39.6612928 35.22669527 -39.69921875 31.99609375 C-39.7050879 29.93750466 -39.70905663 27.8789091 -39.7109375 25.8203125 C-39.72530853 24.85763458 -39.73967957 23.89495667 -39.75448608 22.90310669 C-39.70714308 15.92012947 -38.36884841 12.63396501 -33.56640625 7.51953125 C-24.00016977 -0.08658551 -11.72667085 -0.15932977 0 0 Z M-20.25 20.3125 C-20.25 32.5225 -20.25 44.7325 -20.25 57.3125 C-14.85647411 57.33540785 -9.46311579 57.35533526 -4.06958008 57.36743164 C-2.23331125 57.37247231 -0.39704646 57.37930477 1.43920898 57.38793945 C4.07276401 57.40001672 6.70626616 57.40573081 9.33984375 57.41015625 C10.57890724 57.41789818 10.57890724 57.41789818 11.84300232 57.42579651 C13.81236368 57.42599205 15.78161614 57.37454152 17.75 57.3125 C19.14523855 56.14501001 19.14523855 56.14501001 18.86352539 52.89428711 C18.86327433 51.37613013 18.85771425 49.85796743 18.84765625 48.33984375 C18.84614563 47.2798114 18.84614563 47.2798114 18.84460449 46.19836426 C18.83935745 43.54889309 18.82539629 40.89944498 18.8125 38.25 C18.791875 32.330625 18.77125 26.41125 18.75 20.3125 C5.88 20.3125 -6.99 20.3125 -20.25 20.3125 Z " fill="#393939" transform="translate(269.25,159.6875)"/>
<path d="M0 0 C10.0346668 3.84373976 19.543547 17.18056463 27.01977539 24.73510742 C29.60933145 27.35127827 32.20221371 29.96408741 34.79711914 32.57495117 C35.38460434 33.17073471 35.97208954 33.76651825 36.57737732 34.38035583 C38.98342236 36.80090138 41.23289601 38.89802117 44.08227539 40.79760742 C44.08638428 39.7635376 44.09049316 38.72946777 44.09472656 37.6640625 C44.11655406 33.81509044 44.17087965 29.96713544 44.23486328 26.11865234 C44.25801205 24.4553403 44.2724317 22.79188232 44.27783203 21.12841797 C44.28714519 18.73206991 44.32818091 16.33800684 44.37524414 13.94213867 C44.36934517 12.8324749 44.36934517 12.8324749 44.36332703 11.70039368 C44.47333561 7.77818313 44.95024214 5.96490499 47.40771484 2.85107422 C50.76294866 0.27500196 52.8685201 -0.20239258 57.08227539 -0.20239258 C60.65615141 1.38599677 61.89317111 2.513951 64.08227539 5.79760742 C64.34970093 8.55441284 64.34970093 8.55441284 64.37280273 11.93383789 C64.38556244 13.19880096 64.39832214 14.46376404 64.41146851 15.76705933 C64.41452615 17.1496363 64.41675391 18.53221533 64.41821289 19.91479492 C64.42464057 21.33342626 64.43136891 22.75205626 64.43838501 24.17068481 C64.45036056 27.14482699 64.4540656 30.11885299 64.45288086 33.09301758 C64.45267775 36.89855176 64.47996956 40.70333848 64.51442528 44.5086956 C64.53669743 47.43929443 64.54071831 50.36971354 64.53966141 53.30038834 C64.5420173 54.7029897 64.55084033 56.10559601 64.56632614 57.50811386 C64.58598673 59.47284026 64.57762538 61.43778614 64.56811523 63.40258789 C64.57096527 64.51938934 64.57381531 65.6361908 64.57675171 66.78683472 C63.97048238 70.4782939 62.65909503 72.13691735 60.08227539 74.79760742 C56.82179911 76.42784556 54.70426504 76.26496092 51.08227539 75.79760742 C49.25268555 74.51635742 49.25268555 74.51635742 47.37133789 72.79760742 C46.67411621 72.16145508 45.97689453 71.52530273 45.25854492 70.86987305 C40.89027854 66.71036609 36.66379235 62.41703908 32.43774414 58.11401367 C29.10976333 54.7495285 25.76954534 51.47254822 22.17602539 48.39135742 C17.21058744 44.1331333 12.66243939 39.46224166 8.08227539 34.79760742 C8.07611206 36.34871216 8.07611206 36.34871216 8.06982422 37.93115234 C8.04799672 41.7801244 7.99367113 45.62807941 7.9296875 49.4765625 C7.90653873 51.13987455 7.89211908 52.80333252 7.88671875 54.46679688 C7.87740559 56.86314493 7.83636988 59.25720801 7.78930664 61.65307617 C7.79520561 62.76273994 7.79520561 62.76273994 7.80122375 63.89482117 C7.68935055 67.88351231 7.22730086 69.62096877 4.66308594 72.74414062 C1.91477195 74.93088445 0.77728424 75.70283349 -2.66772461 76.17260742 C-7.15468835 75.65488084 -8.89535762 74.10112483 -11.91772461 70.79760742 C-12.84895216 66.19488948 -13.0458946 61.71402463 -13.05053711 57.02807617 C-13.05287354 55.73877197 -13.05520996 54.44946777 -13.05761719 53.12109375 C-13.05360627 51.74242854 -13.04862156 50.36376586 -13.04272461 48.98510742 C-13.0401767 48.2851767 -13.03762878 47.58524597 -13.03500366 46.86410522 C-13.01661546 42.5398031 -12.98152591 38.21583326 -12.93731689 33.89172363 C-12.91844906 31.87504067 -12.9069533 29.85829285 -12.89575195 27.84155273 C-12.86829857 24.26330653 -12.80580047 20.687622 -12.73022461 17.11010742 C-12.72458496 16.03720459 -12.71894531 14.96430176 -12.71313477 13.85888672 C-12.49858535 6.55057505 -12.49858535 6.55057505 -9.49194336 2.65307617 C-6.11587539 0.21964326 -4.2173022 -0.71997483 0 0 Z " fill="#393939" transform="translate(160.917724609375,160.202392578125)"/>
<path d="M0 0 C3.68245461 3.03454758 5.56034855 6.66948855 7.5625 10.90625 C8.26302193 12.34828898 8.96491938 13.78966031 9.66796875 15.23046875 C10.22943604 16.38651611 10.22943604 16.38651611 10.80224609 17.56591797 C12.48659126 20.98885342 14.23398807 24.37802041 15.98291016 27.76831055 C17.86003676 31.40964647 19.71785723 35.06070206 21.57568359 38.71191406 C22.53399902 40.58780747 23.49797519 42.46081868 24.46728516 44.33105469 C25.88921882 47.0778097 27.29015014 49.83442462 28.6875 52.59375 C29.12175293 53.42096558 29.55600586 54.24818115 30.00341797 55.10046387 C32.62962468 60.34885595 33.70838551 64.11912394 33 70 C30.14809128 73.25932425 28.25061619 74.73945496 24 75.625 C19.36382909 74.65913106 16.30876765 71.97625245 13.737854 68.09414673 C12.5051637 65.84917815 11.36856353 63.57724862 10.2578125 61.26953125 C9.84457733 60.43789963 9.43134216 59.60626801 9.00558472 58.74943542 C8.14038092 57.00196669 7.28184696 55.25118128 6.4296875 53.49731445 C5.12093941 50.80414402 3.79287691 48.12121855 2.4609375 45.43945312 C1.62126752 43.73753537 0.78268667 42.03507975 -0.0546875 40.33203125 C-0.45146698 39.52683548 -0.84824646 38.72163971 -1.25704956 37.89204407 C-4 32.23563174 -4 32.23563174 -4 30 C-4.66 30 -5.32 30 -6 30 C-6.27166992 30.86786133 -6.54333984 31.73572266 -6.82324219 32.62988281 C-7.95808296 35.87995378 -9.29247489 38.84359002 -10.828125 41.921875 C-11.38113281 43.03046875 -11.93414062 44.1390625 -12.50390625 45.28125 C-13.08011719 46.4259375 -13.65632813 47.570625 -14.25 48.75 C-15.09111328 50.44382812 -15.09111328 50.44382812 -15.94921875 52.171875 C-18.5625213 57.38640942 -21.23148509 62.56654766 -24.109375 67.640625 C-24.76631348 68.80126465 -24.76631348 68.80126465 -25.43652344 69.98535156 C-27.35723142 72.46031756 -29.18628205 73.64556719 -32 75 C-35.84752461 74.93249957 -38.19100111 74.51858903 -41.4375 72.4375 C-43.65534855 68.97765625 -43.60330373 65.94802697 -43 62 C-41.64600767 58.2158996 -39.84285329 54.70558543 -37.99609375 51.140625 C-37.47999039 50.11499451 -36.96388702 49.08936401 -36.43214417 48.03265381 C-34.78211773 44.76399512 -33.10980046 41.50730853 -31.4375 38.25 C-30.3391095 36.07622025 -29.24209044 33.90174696 -28.14648438 31.7265625 C-12.6222613 1.03017408 -12.6222613 1.03017408 -8.25 -0.6875 C-5.21317785 -1.10928085 -2.96158632 -0.8020963 0 0 Z " fill="#3B3B3B" transform="translate(381,161)"/>
<path d="M0 0 C4.16193371 3.54755302 6.52569107 7.42883674 8.8125 12.3125 C9.50108339 13.73448092 10.18989227 15.15635267 10.87890625 16.578125 C11.22711426 17.30580078 11.57532227 18.03347656 11.93408203 18.78320312 C13.67034733 22.39412592 15.46006156 25.97796732 17.25 29.5625 C17.56686768 30.20421143 17.88373535 30.84592285 18.21020508 31.50708008 C20.32641862 35.76449524 22.60922506 39.8901944 25 44 C29.51823184 35.54923304 33.99430718 27.08655272 38.25 18.5 C39.49793735 15.99896227 40.74889653 13.49945726 42 11 C42.47308594 10.04480469 42.94617188 9.08960938 43.43359375 8.10546875 C47.35205078 0.54931641 47.35205078 0.54931641 52 -1 C56.21894271 -1 58.23599794 -0.66605308 61.4375 2.125 C63.40381857 5.74302617 63.28534295 7.91170387 63 12 C61.93942261 15.01004028 61.93942261 15.01004028 60.43310547 18.03955078 C59.87186981 19.18408722 59.31063416 20.32862366 58.73239136 21.50784302 C58.11136756 22.7373588 57.48961488 23.96650666 56.8671875 25.1953125 C56.23055629 26.47329695 55.59475641 27.75169584 54.95974731 29.03048706 C53.62870143 31.70287037 52.28771914 34.36995655 50.93945312 37.03369141 C49.21898177 40.43478627 47.52392879 43.84781783 45.83617973 47.26524544 C44.52855482 49.90589149 43.20756403 52.53967403 41.88254166 55.17162704 C41.25254319 56.42698068 40.62663969 57.68439862 40.0050621 58.94394302 C33.89080229 71.29801558 33.89080229 71.29801558 28 75 C24.11154041 75.81009575 22.60168845 75.37860187 19.24560547 73.2668457 C14.34407869 68.9975093 11.90302704 62.8315233 9.0703125 57.10546875 C8.42945708 55.83102505 7.78783197 54.55696812 7.14547729 53.28327942 C5.80679571 50.62069482 4.4784946 47.95324867 3.15722656 45.28198242 C1.46953297 41.87231031 -0.24485757 38.47690417 -1.96748161 35.08477306 C-3.29671956 32.45921865 -4.61068901 29.82624643 -5.92035294 27.19088173 C-6.54625768 25.93626685 -7.17696954 24.68403745 -7.81270981 23.43437767 C-14.12034341 10.9982884 -14.12034341 10.9982884 -13 4 C-8.73610312 -0.37610469 -5.90681555 -1.62147878 0 0 Z " fill="#393939" transform="translate(56,161)"/>
<path d="M0 0 C3.43235085 2.78894085 4.76627582 4.50236226 5.45336914 8.90505981 C5.63006862 12.60372247 5.64010726 16.2700124 5.59375 19.97265625 C5.59203697 21.34215693 5.59210654 22.71166089 5.59387207 24.0811615 C5.59222316 26.94350801 5.5736045 29.8050672 5.54199219 32.66723633 C5.5022771 36.32805114 5.4979537 39.98783812 5.50545502 43.64882755 C5.50853044 46.47396692 5.49638472 49.29887707 5.47932434 52.12396049 C5.46891979 54.12746236 5.46844733 56.13100788 5.46813965 58.13453674 C5.44427185 59.96685097 5.44427185 59.96685097 5.41992188 61.83618164 C5.41150269 62.90840469 5.4030835 63.98062775 5.39440918 65.08534241 C4.9450882 68.40579453 3.94700139 70.29828974 2 73 C-1.42094119 75.56570589 -4.84773484 75.43708054 -9 75 C-11.75329021 73.20437595 -13.52627461 71.94745078 -15 69 C-15.11704616 66.99481568 -15.16975585 64.98575942 -15.19287109 62.97729492 C-15.20893402 61.71225632 -15.22499695 60.44721771 -15.24154663 59.1438446 C-15.25303357 57.75605948 -15.2636422 56.36826685 -15.2734375 54.98046875 C-15.27876118 54.28245966 -15.28408485 53.58445057 -15.28956985 52.86528969 C-15.31629565 49.17021406 -15.33567168 45.47517214 -15.35009766 41.7800293 C-15.36343575 38.72340966 -15.39128467 35.66745785 -15.43212891 32.61108398 C-15.48146385 28.91934518 -15.50621946 25.22821199 -15.51332474 21.53615761 C-15.52003463 20.13072411 -15.5352503 18.72530399 -15.55921555 17.32005882 C-15.5908851 15.35057342 -15.58790083 13.38062376 -15.58349609 11.41088867 C-15.59158295 10.29107101 -15.5996698 9.17125336 -15.60800171 8.01750183 C-14.80291093 4.02185041 -13.11503726 2.54019923 -10 0 C-6.12329273 -1.29223576 -3.9545896 -1.02273869 0 0 Z " fill="#3B3B3B" transform="translate(139,161)"/>
<path d="M0 0 C3.43644729 2.7882197 4.76606674 4.50021491 5.453125 8.90505981 C5.63009195 12.60374236 5.64010766 16.26998024 5.59375 19.97265625 C5.59203697 21.34215693 5.59210654 22.71166089 5.59387207 24.0811615 C5.59222316 26.94350801 5.5736045 29.8050672 5.54199219 32.66723633 C5.5022771 36.32805114 5.4979537 39.98783812 5.50545502 43.64882755 C5.50853044 46.47396692 5.49638472 49.29887707 5.47932434 52.12396049 C5.46891979 54.12746236 5.46844733 56.13100788 5.46813965 58.13453674 C5.44427185 59.96685097 5.44427185 59.96685097 5.41992188 61.83618164 C5.41150269 62.90840469 5.4030835 63.98062775 5.39440918 65.08534241 C4.9450882 68.40579453 3.94700139 70.29828974 2 73 C-1.42159595 75.56619697 -4.84844133 75.50984054 -9 75 C-11.875 72.5625 -11.875 72.5625 -14 70 C-14.33 69.67 -14.66 69.34 -15 69 C-15.12556152 67.03304844 -15.18079497 65.06157732 -15.20874023 63.09082031 C-15.22803085 61.82570618 -15.24732147 60.56059204 -15.26719666 59.25714111 C-15.28200399 57.8641461 -15.29577739 56.47113976 -15.30859375 55.078125 C-15.31845149 54.02973576 -15.31845149 54.02973576 -15.32850838 52.96016693 C-15.36113324 49.25862146 -15.38557291 45.55710511 -15.4050293 41.85546875 C-15.42282851 38.79189058 -15.45761834 35.7292354 -15.50756836 32.66601562 C-15.56778952 28.96891335 -15.59850758 25.27266553 -15.60820198 21.57509613 C-15.61675768 20.16683775 -15.63557941 18.75860225 -15.6649456 17.35062408 C-15.88240428 6.32833281 -15.88240428 6.32833281 -13.69241333 3.03161621 C-9.08686962 -0.90356726 -5.77493943 -1.46820494 0 0 Z " fill="#3A3A3A" transform="translate(434,161)"/>
<path d="M0 0 C2.22100649 6.66301948 -3.17123283 14.92604816 -6 21 C-6.66 21 -7.32 21 -8 21 C-8.05429278 23.70860665 -8.09381211 26.41610901 -8.125 29.125 C-8.14175781 29.88554688 -8.15851563 30.64609375 -8.17578125 31.4296875 C-8.21546246 36.03270731 -7.75907577 39.66464004 -6 44 C-5.01 44 -4.02 44 -3 44 C-2.67 45.65 -2.34 47.3 -2 49 C-1.01 49 -0.02 49 1 49 C1.33 48.01 1.66 47.02 2 46 C3.98 46.66 5.96 47.32 8 48 C8 48.33 8 48.66 8 49 C11.3 49 14.6 49 18 49 C17.34 48.34 16.68 47.68 16 47 C15.34 46.34 14.68 45.68 14 45 C14.66 45 15.32 45 16 45 C16 44.34 16 43.68 16 43 C36.79 43 57.58 43 79 43 C76.96145443 47.07709115 74.5572417 49.71614937 71.37109375 52.859375 C70.8213942 53.40861633 70.27169464 53.95785767 69.70533752 54.52374268 C68.54689145 55.67917585 67.38602406 56.83218584 66.22290039 57.98291016 C64.43509149 59.75238381 62.65549296 61.52980856 60.87695312 63.30859375 C59.75047231 64.43016208 58.62353505 65.55127219 57.49609375 66.671875 C56.96068466 67.20617126 56.42527557 67.74046753 55.87364197 68.29095459 C52.11606749 72 52.11606749 72 51 72 C50.505 63.09 50.505 63.09 50 54 C47.59344232 52.79672116 46.07350519 52.86922169 43.38598633 52.8581543 C42.42771439 52.85111984 41.46944244 52.84408539 40.48213196 52.83683777 C38.92283211 52.83059135 38.92283211 52.83059135 37.33203125 52.82421875 C35.13736028 52.80101328 32.94269879 52.77689565 30.74804688 52.75195312 C27.28305788 52.71688388 23.81841608 52.68752296 20.35327148 52.67407227 C17.01242769 52.6585601 13.67260425 52.61831909 10.33203125 52.57421875 C8.78791313 52.57708138 8.78791313 52.57708138 7.21260071 52.58000183 C0.93900664 52.47378626 -2.88137104 51.70460986 -8 48 C-12.50303707 42.61293112 -11.63168174 35.75219825 -11.21582031 29.10888672 C-10.14425629 18.63810619 -5.793658 8.690487 0 0 Z " fill="#4D3EDD" transform="translate(185,40)"/>
<path d="M0 0 C2.26849666 3.65172633 2.3895951 7.0127118 2.625 11.25 C2.69976562 12.51328125 2.77453125 13.7765625 2.8515625 15.078125 C2.90054688 16.04234375 2.94953125 17.0065625 3 18 C3.89749718 18.00879936 3.89749718 18.00879936 4.81312561 18.01777649 C11.05923604 18.08187467 17.30483905 18.1663365 23.55053711 18.26245117 C25.87924495 18.29563748 28.20803202 18.32368888 30.53686523 18.34643555 C33.89080457 18.38009669 37.24402206 18.43241999 40.59765625 18.48828125 C41.63334244 18.49467117 42.66902863 18.5010611 43.73609924 18.50764465 C50.73664062 18.64897204 56.09445247 19.24737603 61.375 24.25 C63.31214306 27.52824211 63.70442649 30.2314377 64 34 C65.65 33.34 67.3 32.68 69 32 C68.55090939 33.48199902 68.09043436 34.96055236 67.625 36.4375 C67.36976563 37.26121094 67.11453125 38.08492187 66.8515625 38.93359375 C66 41 66 41 64 42 C63.08514427 44.80478195 63.08514427 44.80478195 62.375 48.0625 C61.98441406 49.71958984 61.98441406 49.71958984 61.5859375 51.41015625 C61.39257812 52.26480469 61.19921875 53.11945313 61 54 C60.34 53.67 59.68 53.34 59 53 C59.165 52.18015625 59.33 51.3603125 59.5 50.515625 C60.06519334 46.54160933 60.07331763 42.75314249 60 38.75 C59.86591696 31.26816609 59.86591696 31.26816609 61 29 C59.824375 28.7834375 59.824375 28.7834375 58.625 28.5625 C56 28 56 28 54 27 C54 27.66 54 28.32 54 29 C54.66 29 55.32 29 56 29 C56 29.66 56 30.32 56 31 C54.68 30.67 53.36 30.34 52 30 C52 28.02 52 26.04 52 24 C50.35 24.33 48.7 24.66 47 25 C47 24.01 47 23.02 47 22 C41.7854073 22.11822835 36.571006 22.24247541 31.35668945 22.37231445 C29.58264063 22.41563934 27.80855077 22.45731619 26.03442383 22.49731445 C23.48506295 22.5550762 20.9359082 22.61875362 18.38671875 22.68359375 C17.59287277 22.70030624 16.79902679 22.71701874 15.98112488 22.73423767 C12.75316923 22.82117718 10.08248901 22.97250366 7 24 C7 23.34 7 22.68 7 22 C4.36 21.67 1.72 21.34 -1 21 C-1 20.34 -1 19.68 -1 19 C-1.99 19 -2.98 19 -4 19 C-4 19.66 -4 20.32 -4 21 C-4.66 21 -5.32 21 -6 21 C-6.33 21.99 -6.66 22.98 -7 24 C-8.32 24 -9.64 24 -11 24 C-11.33 24.66 -11.66 25.32 -12 26 C-9.31243045 26.02720824 -6.62514202 26.0469388 -3.9375 26.0625 C-3.18533203 26.07087891 -2.43316406 26.07925781 -1.65820312 26.08789062 C3.00327638 26.10807019 7.37894966 25.67831932 12 25 C14.4784122 24.93539071 16.95835823 24.91388913 19.4375 24.9375 C21.29181641 24.95103516 21.29181641 24.95103516 23.18359375 24.96484375 C24.57771484 24.98224609 24.57771484 24.98224609 26 25 C26 25.66 26 26.32 26 27 C29.3 26.67 32.6 26.34 36 26 C36 26.66 36 27.32 36 28 C36.5775 27.814375 37.155 27.62875 37.75 27.4375 C40.26019347 26.94940683 41.64247837 27.02447381 44 28 C44.495 29.485 44.495 29.485 45 31 C43.5625 33.1875 43.5625 33.1875 42 35 C41.67 34.67 41.34 34.34 41 34 C40.67 35.65 40.34 37.3 40 39 C38.35 38.67 36.7 38.34 35 38 C35 35.36 35 32.72 35 30 C14.21 29.67 -6.58 29.34 -28 29 C-24.29355198 23.44032797 -21.0456024 19.66987951 -15.9375 15.5 C-13.01430013 13.17773025 -13.01430013 13.17773025 -11.125 10.625 C-8.14840858 6.94803412 -4.59252494 4.05816769 -1 1 C-0.67 0.67 -0.34 0.34 0 0 Z " fill="#494FC4" transform="translate(244,45)"/>
<path d="M0 0 C2.22100649 6.66301948 -3.17123283 14.92604816 -6 21 C-6.66 21 -7.32 21 -8 21 C-8.05429278 23.70860665 -8.09381211 26.41610901 -8.125 29.125 C-8.14175781 29.88554688 -8.15851563 30.64609375 -8.17578125 31.4296875 C-8.21546246 36.03270731 -7.75907577 39.66464004 -6 44 C-5.01 44 -4.02 44 -3 44 C-2.67 45.65 -2.34 47.3 -2 49 C-1.01 49 -0.02 49 1 49 C1.33 48.01 1.66 47.02 2 46 C3.98 46.66 5.96 47.32 8 48 C8 48.33 8 48.66 8 49 C9.18553467 49.01981934 10.37106934 49.03963867 11.5925293 49.06005859 C16.00029367 49.13625789 20.4077341 49.22495323 24.81518555 49.31738281 C26.72104486 49.35561339 28.62697487 49.39047655 30.53295898 49.421875 C33.27613553 49.46765422 36.01882788 49.5256273 38.76171875 49.5859375 C40.03543587 49.60326431 40.03543587 49.60326431 41.33488464 49.62094116 C42.13533707 49.64081085 42.93578949 49.66068054 43.76049805 49.68115234 C44.80973701 49.70113785 44.80973701 49.70113785 45.88017273 49.7215271 C48 50 48 50 53 52 C53 56.62 53 61.24 53 66 C53.99 66 54.98 66 56 66 C56 64.68 56 63.36 56 62 C57.33333333 61 58.66666667 60 60 59 C60 57.68 60 56.36 60 55 C61 54 61 54 64.0625 53.9375 C65.031875 53.958125 66.00125 53.97875 67 54 C67 53.34 67 52.68 67 52 C68.98 52.495 68.98 52.495 71 53 C67.85817898 56.1706695 64.71089125 59.33585554 61.5625 62.5 C60.66466797 63.40621094 59.76683594 64.31242187 58.84179688 65.24609375 C57.98779297 66.10332031 57.13378906 66.96054688 56.25390625 67.84375 C55.46314697 68.63974609 54.6723877 69.43574219 53.85766602 70.25585938 C52 72 52 72 51 72 C50.505 63.09 50.505 63.09 50 54 C47.59344232 52.79672116 46.07350519 52.86922169 43.38598633 52.8581543 C42.42771439 52.85111984 41.46944244 52.84408539 40.48213196 52.83683777 C38.92283211 52.83059135 38.92283211 52.83059135 37.33203125 52.82421875 C35.13736028 52.80101328 32.94269879 52.77689565 30.74804688 52.75195312 C27.28305788 52.71688388 23.81841608 52.68752296 20.35327148 52.67407227 C17.01242769 52.6585601 13.67260425 52.61831909 10.33203125 52.57421875 C8.78791313 52.57708138 8.78791313 52.57708138 7.21260071 52.58000183 C0.93900664 52.47378626 -2.88137104 51.70460986 -8 48 C-12.50303707 42.61293112 -11.63168174 35.75219825 -11.21582031 29.10888672 C-10.14425629 18.63810619 -5.793658 8.690487 0 0 Z " fill="#4F40C7" transform="translate(185,40)"/>
<path d="M0 0 C0.66 0.33 1.32 0.66 2 1 C0.35 3.97 -1.3 6.94 -3 10 C-0.69 10 1.62 10 4 10 C3.67 10.99 3.34 11.98 3 13 C1.68 13 0.36 13 -1 13 C-1.33 13.66 -1.66 14.32 -2 15 C0.68756955 15.02720824 3.37485798 15.0469388 6.0625 15.0625 C6.81466797 15.07087891 7.56683594 15.07925781 8.34179688 15.08789062 C13.00327638 15.10807019 17.37894966 14.67831932 22 14 C24.4784122 13.93539071 26.95835823 13.91388913 29.4375 13.9375 C31.29181641 13.95103516 31.29181641 13.95103516 33.18359375 13.96484375 C34.57771484 13.98224609 34.57771484 13.98224609 36 14 C36 14.66 36 15.32 36 16 C39.3 15.67 42.6 15.34 46 15 C46 15.66 46 16.32 46 17 C46.5775 16.814375 47.155 16.62875 47.75 16.4375 C50.26019347 15.94940683 51.64247837 16.02447381 54 17 C54.495 18.485 54.495 18.485 55 20 C53.5625 22.1875 53.5625 22.1875 52 24 C51.67 23.67 51.34 23.34 51 23 C50.505 25.475 50.505 25.475 50 28 C48.35 27.67 46.7 27.34 45 27 C45 24.36 45 21.72 45 19 C24.21 18.67 3.42 18.34 -18 18 C-12.90387671 10.35581506 -7.23874104 5.47242514 0 0 Z " fill="#494BD2" transform="translate(234,56)"/>
<path d="M0 0 C0.99 0.33 1.98 0.66 3 1 C-2.60358743 7.83731844 -8.91058811 13.92098885 -15.28198242 20.03515625 C-16.70349268 21.40216695 -18.11171249 22.7829557 -19.51953125 24.1640625 C-20.77407104 25.37763428 -20.77407104 25.37763428 -22.05395508 26.61572266 C-24.13867047 29.16989785 -24.67555975 30.7584782 -25 34 C-22.2886779 35.35566105 -20.11692002 35.16231085 -17.08154297 35.20532227 C-15.21983963 35.2352401 -15.21983963 35.2352401 -13.32052612 35.26576233 C-11.9610812 35.2827466 -10.60163495 35.29962541 -9.2421875 35.31640625 C-7.85498433 35.33697581 -6.46778743 35.35797228 -5.08059692 35.37937927 C-1.42772495 35.43459981 2.22520359 35.48400911 5.87817383 35.53222656 C9.60503174 35.58244175 13.33180741 35.63812771 17.05859375 35.69335938 C24.37232621 35.80094071 31.68612701 35.90238568 39 36 C37 38 37 38 34.34326172 38.21600342 C33.21678223 38.19982971 32.09030273 38.18365601 30.9296875 38.16699219 C29.01760498 38.14641754 29.01760498 38.14641754 27.06689453 38.12542725 C25.66958692 38.09975129 24.2722888 38.07355466 22.875 38.046875 C21.4477627 38.0257835 20.02051624 38.00530407 18.59326172 37.9854126 C15.60043682 37.94136465 12.60784943 37.88999166 9.61523438 37.83349609 C5.77505327 37.76157154 1.93486923 37.70758066 -1.90567017 37.65903854 C-4.85340588 37.61984436 -7.80092912 37.57126473 -10.74847412 37.51981354 C-12.16464747 37.49621302 -13.58087251 37.47553104 -14.99713135 37.45778656 C-16.97479925 37.4315793 -18.95226759 37.39142287 -20.9296875 37.35058594 C-22.61940674 37.32155182 -22.61940674 37.32155182 -24.34326172 37.29193115 C-27 37 -27 37 -29 35 C-28.67582137 31.19090105 -28.14418558 29.21627837 -26 26 C-25.97250522 23.93089407 -25.97250522 23.93089407 -26.375 21.8125 C-26.58125 20.554375 -26.7875 19.29625 -27 18 C-24.03 17.67 -21.06 17.34 -18 17 C-16.87873219 13.20211302 -16.87873219 13.20211302 -17 10 C-15.576875 10.0309375 -15.576875 10.0309375 -14.125 10.0625 C-11.09333717 10.22551826 -11.09333717 10.22551826 -9 9 C-8.67 8.01 -8.34 7.02 -8 6 C-7.01 5.67 -6.02 5.34 -5 5 C-4.34 5.33 -3.68 5.66 -3 6 C-3 4.68 -3 3.36 -3 2 C-2.01 2 -1.02 2 0 2 C0 1.34 0 0.68 0 0 Z " fill="#817DE6" transform="translate(227,46)"/>
<path d="M0 0 C1.18722656 0.29970703 1.18722656 0.29970703 2.3984375 0.60546875 C3.59339844 0.89357422 3.59339844 0.89357422 4.8125 1.1875 C6.7734375 1.79296875 6.7734375 1.79296875 7.7734375 2.79296875 C8.01524499 4.74534034 8.19052553 6.70606125 8.3359375 8.66796875 C8.46162109 10.27285156 8.46162109 10.27285156 8.58984375 11.91015625 C8.82454697 16.87387967 8.80888427 21.82479504 8.7734375 26.79296875 C13.38158785 26.8177581 17.98969903 26.83587105 22.59790039 26.84790039 C24.16431352 26.85291731 25.730722 26.85973237 27.29711914 26.8684082 C29.55355989 26.88058969 31.80993852 26.88622356 34.06640625 26.890625 C34.76243454 26.89578629 35.45846283 26.90094757 36.17558289 26.90626526 C39.85354965 26.90668597 43.18756668 26.57374764 46.7734375 25.79296875 C48.0934375 25.79296875 49.4134375 25.79296875 50.7734375 25.79296875 C50.7734375 23.48296875 50.7734375 21.17296875 50.7734375 18.79296875 C54.03191109 22.49577965 54.25812148 24.4893627 55.7734375 29.79296875 C39.2734375 29.79296875 22.7734375 29.79296875 5.7734375 29.79296875 C5.2784375 17.41796875 5.2784375 17.41796875 4.7734375 4.79296875 C3.1234375 4.46296875 1.4734375 4.13296875 -0.2265625 3.79296875 C-3.02765608 5.86574139 -3.02765608 5.86574139 -5.5390625 8.73046875 C-6.86357422 10.13619141 -6.86357422 10.13619141 -8.21484375 11.5703125 C-9.21064453 12.67052734 -9.21064453 12.67052734 -10.2265625 13.79296875 C-10.8865625 12.47296875 -11.5465625 11.15296875 -12.2265625 9.79296875 C-11.5665625 9.13296875 -10.9065625 8.47296875 -10.2265625 7.79296875 C-9.5665625 7.79296875 -8.9065625 7.79296875 -8.2265625 7.79296875 C-7.5665625 6.80296875 -6.9065625 5.81296875 -6.2265625 4.79296875 C-5.5665625 5.12296875 -4.9065625 5.45296875 -4.2265625 5.79296875 C-4.5565625 4.47296875 -4.8865625 3.15296875 -5.2265625 1.79296875 C-2.2265625 -0.20703125 -2.2265625 -0.20703125 0 0 Z " fill="#5D72D9" transform="translate(248.2265625,26.20703125)"/>
<path d="M0 0 C0.99 0 1.98 0 3 0 C3 0.66 3 1.32 3 2 C3.99 2.33 4.98 2.66 6 3 C7.39453125 4.48828125 7.39453125 4.48828125 8.8125 6.3125 C12.48599937 10.76080693 16.7752996 13.58859982 22 16 C22 16.66 22 17.32 22 18 C28.98144819 19.69214979 35.84404654 21.29843593 43 22 C43 22.99 43 23.98 43 25 C43.84820312 24.82597656 44.69640625 24.65195313 45.5703125 24.47265625 C49.15860955 23.97814151 52.27389883 24.10678663 55.875 24.4375 C57.02742188 24.53933594 58.17984375 24.64117187 59.3671875 24.74609375 C60.23601562 24.82988281 61.10484375 24.91367188 62 25 C62.33 24.34 62.66 23.68 63 23 C64.55344859 21.44655141 66.22516272 21.69480726 68.375 21.5 C71.17321314 21.24478838 73.30810511 20.8972983 76 20 C76.495 18.515 76.495 18.515 77 17 C77.62648438 16.93941406 78.25296875 16.87882812 78.8984375 16.81640625 C79.71570313 16.73261719 80.53296875 16.64882812 81.375 16.5625 C82.59316406 16.44068359 82.59316406 16.44068359 83.8359375 16.31640625 C86.04272805 16.10909886 86.04272805 16.10909886 88 15 C90.6723621 14.86584528 93.32250488 14.95681459 96 15 C96 15.66 96 16.32 96 17 C95.14535156 16.93167969 94.29070312 16.86335938 93.41015625 16.79296875 C89.29861535 17.0425812 87.0193806 18.307809 83.4375 20.3125 C68.99452642 27.90453927 50.82157363 29.91181934 35.01953125 25.16015625 C21.24426079 19.86745854 7.98337425 12.87039306 0 0 Z " fill="#6E41B8" transform="translate(187,118)"/>
<path d="M0 0 C2 4 2 4 3 18 C27.255 18.495 27.255 18.495 52 19 C52 19.33 52 19.66 52 20 C34.51 20.33 17.02 20.66 -1 21 C-1 20.34 -1 19.68 -1 19 C-1.99 19 -2.98 19 -4 19 C-4 19.66 -4 20.32 -4 21 C-6.97 21 -9.94 21 -13 21 C-12.08541782 17.34167128 -10.99523834 15.12298174 -9 12 C-9.99 11.67 -10.98 11.34 -12 11 C-8.04 7.37 -4.08 3.74 0 0 Z M-8 9 C-7 11 -7 11 -7 11 Z " fill="#4152E0" transform="translate(244,45)"/>
<path d="M0 0 C8.43123563 -0.28899913 16.41652023 1.43071039 24.62109375 3.16015625 C24.62109375 3.49015625 24.62109375 3.82015625 24.62109375 4.16015625 C23.35136719 3.99902344 22.08164062 3.83789062 20.7734375 3.671875 C15.56894289 3.09586335 10.416136 2.97653508 5.18359375 2.97265625 C4.28705078 2.96041016 3.39050781 2.94816406 2.46679688 2.93554688 C1.61150391 2.93361328 0.75621094 2.93167969 -0.125 2.9296875 C-0.89513428 2.92557861 -1.66526855 2.92146973 -2.45874023 2.91723633 C-4.61848567 2.99122455 -4.61848567 2.99122455 -6.37890625 5.16015625 C-8.71183959 5.20335872 -11.04591965 5.20038016 -13.37890625 5.16015625 C-15.6892754 5.5887062 -15.6892754 5.5887062 -17.37890625 6.16015625 C-17.37890625 7.15015625 -17.37890625 8.14015625 -17.37890625 9.16015625 C-18.69890625 9.16015625 -20.01890625 9.16015625 -21.37890625 9.16015625 C-21.37890625 9.82015625 -21.37890625 10.48015625 -21.37890625 11.16015625 C-24.01782801 12.94321149 -26.35069488 14.15075246 -29.37890625 15.16015625 C-29.37890625 15.82015625 -29.37890625 16.48015625 -29.37890625 17.16015625 C-32.37890625 18.16015625 -32.37890625 18.16015625 -35.37890625 17.16015625 C-37.38766067 17.43586764 -39.39069312 17.76251362 -41.37890625 18.16015625 C-30.05339497 6.51105893 -16.12158729 1.08536138 0 0 Z " fill="#4979E1" transform="translate(237.37890625,10.83984375)"/>
<path d="M0 0 C7.52969652 -0.02526648 15.0593822 -0.04283141 22.58911133 -0.05493164 C25.15291757 -0.0599737 27.71672091 -0.06680714 30.28051758 -0.07543945 C33.95655021 -0.08751064 37.63254498 -0.09322942 41.30859375 -0.09765625 C42.46274277 -0.10281754 43.61689178 -0.10797882 44.80601501 -0.11329651 C46.3975515 -0.11340981 46.3975515 -0.11340981 48.02124023 -0.11352539 C48.96055893 -0.115746 49.89987762 -0.11796661 50.86766052 -0.12025452 C53 0 53 0 54 1 C54.07271741 3.35313555 54.08370868 5.70833668 54.0625 8.0625 C54.05347656 9.35285156 54.04445312 10.64320312 54.03515625 11.97265625 C54.02355469 12.97167969 54.01195312 13.97070312 54 15 C54.99 15 55.98 15 57 15 C57 13.68 57 12.36 57 11 C58.33333333 10 59.66666667 9 61 8 C61 6.68 61 5.36 61 4 C62 3 62 3 65.0625 2.9375 C66.5165625 2.9684375 66.5165625 2.9684375 68 3 C68 2.34 68 1.68 68 1 C69.32 1.33 70.64 1.66 72 2 C68.85817898 5.1706695 65.71089125 8.33585554 62.5625 11.5 C61.66466797 12.40621094 60.76683594 13.31242187 59.84179688 14.24609375 C58.56079102 15.53193359 58.56079102 15.53193359 57.25390625 16.84375 C56.46314697 17.63974609 55.6723877 18.43574219 54.85766602 19.25585938 C53 21 53 21 52 21 C51.505 12.09 51.505 12.09 51 3 C48.58093209 1.79046605 46.97833692 1.84320092 44.27490234 1.79467773 C43.29403656 1.77473251 42.31317078 1.75478729 41.30258179 1.73423767 C40.24108917 1.71752518 39.17959656 1.70081268 38.0859375 1.68359375 C36.45877304 1.6524221 36.45877304 1.6524221 34.79873657 1.62062073 C31.32422379 1.55509366 27.84963376 1.49622553 24.375 1.4375 C22.02342942 1.39431779 19.67186674 1.3507036 17.3203125 1.30664062 C11.5469573 1.19940907 5.7735248 1.09764856 0 1 C0 0.67 0 0.34 0 0 Z " fill="#7161D3" transform="translate(184,91)"/>
<path d="M0 0 C15.84 0 31.68 0 48 0 C48 7.59 48 15.18 48 23 C47.67 23 47.34 23 47 23 C46.93941406 22.14277344 46.87882812 21.28554687 46.81640625 20.40234375 C46.73261719 19.25894531 46.64882812 18.11554688 46.5625 16.9375 C46.48128906 15.81214844 46.40007812 14.68679687 46.31640625 13.52734375 C46.00045232 10.00504258 45.50012863 6.50090042 45 3 C25.695 2.505 25.695 2.505 6 2 C5.06608215 6.66958927 5.19082344 9.41466617 6 14 C2.44188906 9.59471979 0 5.75487737 0 0 Z " fill="#543DC3" transform="translate(179,101)"/>
<path d="M0 0 C3.82282913 3.71663943 4.58791189 6.74587663 5 12 C6.65 11.34 8.3 10.68 10 10 C9.55090939 11.48199902 9.09043436 12.96055236 8.625 14.4375 C8.24214844 15.67306641 8.24214844 15.67306641 7.8515625 16.93359375 C7 19 7 19 5 20 C4.08514427 22.80478195 4.08514427 22.80478195 3.375 26.0625 C3.11460937 27.16722656 2.85421875 28.27195312 2.5859375 29.41015625 C2.39257812 30.26480469 2.19921875 31.11945313 2 32 C1.34 31.67 0.68 31.34 0 31 C0.15855469 30.22011719 0.31710937 29.44023438 0.48046875 28.63671875 C1.14105155 24.01263914 1.2618249 19.47798772 1.3125 14.8125 C1.34150391 13.91080078 1.37050781 13.00910156 1.40039062 12.08007812 C1.42389035 9.65237565 1.40979365 7.39344925 1 5 C-0.84377568 2.89574884 -0.84377568 2.89574884 -3 2 C-3 1.67 -3 1.34 -3 1 C-5.31 0.67 -7.62 0.34 -10 0 C-10 -0.33 -10 -0.66 -10 -1 C-5.95202225 -2.15656507 -3.69172878 -2.08251367 0 0 Z " fill="#5D56C3" transform="translate(303,67)"/>
<path d="M0 0 C0.66 0.33 1.32 0.66 2 1 C-0.475 5.455 -0.475 5.455 -3 10 C-0.69 10 1.62 10 4 10 C3.67 10.99 3.34 11.98 3 13 C1.68 13 0.36 13 -1 13 C-1.33 13.66 -1.66 14.32 -2 15 C0.64 15 3.28 15 6 15 C6 15.33 6 15.66 6 16 C0.72 16 -4.56 16 -10 16 C-9.67 14.02 -9.34 12.04 -9 10 C-9.66 9.67 -10.32 9.34 -11 9 C-9.54405245 7.68485396 -8.08516421 6.37296283 -6.625 5.0625 C-5.81289062 4.33160156 -5.00078125 3.60070313 -4.1640625 2.84765625 C-2 1 -2 1 0 0 Z " fill="#454ADE" transform="translate(234,56)"/>
<path d="M0 0 C0 0.66 0 1.32 0 2 C-0.84691406 1.93039063 -1.69382812 1.86078125 -2.56640625 1.7890625 C-6.6304508 2.03873077 -9.45205531 3.44247621 -12.9375 5.375 C-20.10210701 9.2786397 -25.78445425 11.67664199 -34 10 C-33 8 -33 8 -32 7 C-30.54704215 6.79160764 -29.0868369 6.63246419 -27.625 6.5 C-24.82678686 6.24478838 -22.69189489 5.8972983 -20 5 C-19.67 4.01 -19.34 3.02 -19 2 C-18.06027344 1.90912109 -18.06027344 1.90912109 -17.1015625 1.81640625 C-16.28429687 1.73261719 -15.46703125 1.64882812 -14.625 1.5625 C-13.81289063 1.48128906 -13.00078125 1.40007812 -12.1640625 1.31640625 C-2.84648494 -0.04591105 -2.84648494 -0.04591105 0 0 Z " fill="#6D36C1" transform="translate(283,133)"/>
<path d="M0 0 C2 4 2 4 3 18 C27.255 18.495 27.255 18.495 52 19 C52 19.33 52 19.66 52 20 C34.84 20 17.68 20 0 20 C0 15.05 0 10.1 0 5 C-1.65 5.33 -3.3 5.66 -5 6 C-3.35 4.02 -1.7 2.04 0 0 Z " fill="#99A1E6" transform="translate(244,45)"/>
<path d="M0 0 C19.47 0 38.94 0 59 0 C56.9957983 4.0084034 55.50944037 5.41409657 52 8 C52 6.68 52 5.36 52 4 C52.99 4 53.98 4 55 4 C55 3.01 55 2.02 55 1 C53.72660767 1.05329468 53.72660767 1.05329468 52.42749023 1.10766602 C34.88222958 1.81667304 17.5437356 2.14034281 0 1 C0 0.67 0 0.34 0 0 Z " fill="#4F44C7" transform="translate(205,83)"/>
<path d="M0 0 C2.22100649 6.66301948 -3.17123283 14.92604816 -6 21 C-6.66 21 -7.32 21 -8 21 C-8 24.96 -8 28.92 -8 33 C-8.99 33.495 -8.99 33.495 -10 34 C-12.3491159 21.99510249 -6.59220066 9.88830099 0 0 Z " fill="#666DCF" transform="translate(185,40)"/>
<path d="M0 0 C0.33 0.66 0.66 1.32 1 2 C0.34 2 -0.32 2 -1 2 C-0.67 2.99 -0.34 3.98 0 5 C18.15 5.33 36.3 5.66 55 6 C55 6.33 55 6.66 55 7 C34.87 7 14.74 7 -6 7 C-2 1 -2 1 0 0 Z " fill="#7F7ED9" transform="translate(222,67)"/>
<path d="M0 0 C1.18722656 0.29970703 1.18722656 0.29970703 2.3984375 0.60546875 C3.59339844 0.89357422 3.59339844 0.89357422 4.8125 1.1875 C6.7734375 1.79296875 6.7734375 1.79296875 7.7734375 2.79296875 C8.00825443 4.97589649 8.18707073 7.16500049 8.3359375 9.35546875 C8.46162109 11.15177734 8.46162109 11.15177734 8.58984375 12.984375 C8.65042969 13.91121094 8.71101563 14.83804688 8.7734375 15.79296875 C6.89842108 12.2320132 5.82012903 8.68068015 4.7734375 4.79296875 C2.54697783 3.84505755 2.54697783 3.84505755 -0.2265625 3.79296875 C-3.02765608 5.86574139 -3.02765608 5.86574139 -5.5390625 8.73046875 C-6.86357422 10.13619141 -6.86357422 10.13619141 -8.21484375 11.5703125 C-9.21064453 12.67052734 -9.21064453 12.67052734 -10.2265625 13.79296875 C-10.8865625 12.47296875 -11.5465625 11.15296875 -12.2265625 9.79296875 C-11.5665625 9.13296875 -10.9065625 8.47296875 -10.2265625 7.79296875 C-9.5665625 7.79296875 -8.9065625 7.79296875 -8.2265625 7.79296875 C-7.5665625 6.80296875 -6.9065625 5.81296875 -6.2265625 4.79296875 C-5.5665625 5.12296875 -4.9065625 5.45296875 -4.2265625 5.79296875 C-4.5565625 4.47296875 -4.8865625 3.15296875 -5.2265625 1.79296875 C-2.2265625 -0.20703125 -2.2265625 -0.20703125 0 0 Z " fill="#4166DB" transform="translate(248.2265625,26.20703125)"/>
<path d="M0 0 C0 7.59 0 15.18 0 23 C-0.33 23 -0.66 23 -1 23 C-1.06058594 22.14277344 -1.12117188 21.28554687 -1.18359375 20.40234375 C-1.26738281 19.25894531 -1.35117188 18.11554688 -1.4375 16.9375 C-1.51871094 15.81214844 -1.59992188 14.68679687 -1.68359375 13.52734375 C-1.99954768 10.00504258 -2.49987137 6.50090042 -3 3 C-14.88 2.67 -26.76 2.34 -39 2 C-39 1.67 -39 1.34 -39 1 C-33.60653108 0.85741796 -28.21305771 0.71500585 -22.81958008 0.57275391 C-20.98331581 0.52429851 -19.14705279 0.475796 -17.31079102 0.42724609 C-14.67724932 0.35762454 -12.04370326 0.28817033 -9.41015625 0.21875 C-8.58411392 0.19687622 -7.75807159 0.17500244 -6.90699768 0.15246582 C-1.11387171 0 -1.11387171 0 0 0 Z " fill="#5035CE" transform="translate(227,101)"/>
<path d="M0 0 C-0.66 1.98 -1.32 3.96 -2 6 C-2.66 6 -3.32 6 -4 6 C-4 6.66 -4 7.32 -4 8 C-7 9 -7 9 -10 8 C-12.00875442 8.27571139 -14.01178687 8.60235737 -16 9 C-14.33333333 7.33333333 -12.66666667 5.66666667 -11 4 C-10.505 3.4225 -10.01 2.845 -9.5 2.25 C-6.70929469 -0.07558776 -3.50785565 0 0 0 Z " fill="#3266E8" transform="translate(212,20)"/>
<path d="M0 0 C1.69433918 3.0469629 2.49467112 5.82821466 3.125 9.25 C3.29257812 10.14203125 3.46015625 11.0340625 3.6328125 11.953125 C3.75398438 12.62859375 3.87515625 13.3040625 4 14 C-2.40593286 12.89309248 -8.71363856 11.66054831 -15 10 C-13.4375 8.875 -13.4375 8.875 -11 8 C-8.645752 8.588562 -6.31029085 9.25740651 -4 10 C-2.68 10 -1.36 10 0 10 C-0.34786708 8.02463255 -0.34786708 8.02463255 -1 6 C-1.66 5.67 -2.32 5.34 -3 5 C-3 4.34 -3 3.68 -3 3 C-2.01 3 -1.02 3 0 3 C0 2.01 0 1.02 0 0 Z " fill="#764AC0" transform="translate(299,126)"/>
<path d="M0 0 C0 2.83967231 -0.40267181 5.23735711 -1 8 C-2.65 8.33 -4.3 8.66 -6 9 C-6.33 9.99 -6.66 10.98 -7 12 C-7.66 12 -8.32 12 -9 12 C-9 12.66 -9 13.32 -9 14 C-9.66 14 -10.32 14 -11 14 C-11 14.66 -11 15.32 -11 16 C-12.76957906 18.3283935 -13.81583516 18.95288806 -16.6875 19.6875 C-17.450625 19.790625 -18.21375 19.89375 -19 20 C-13.17371096 12.84198775 -6.5617015 6.47408234 0 0 Z " fill="#6346BF" transform="translate(260,100)"/>
<path d="M0 0 C1.37579827 2.66211372 2.37063561 5.06296616 3 8 C2.34 8 1.68 8 1 8 C1 8.66 1 9.32 1 10 C-1.97 10 -4.94 10 -8 10 C-6.95475221 5.81900884 -6.5894258 5.27154064 -3.4375 2.75 C-2.79683594 2.22921875 -2.15617188 1.7084375 -1.49609375 1.171875 C-1.00238281 0.78515625 -0.50867188 0.3984375 0 0 Z " fill="#414FE7" transform="translate(239,56)"/>
<path d="M0 0 C2.71494932 2.71494932 2.76631285 5.21472069 3.4375 8.90625 C3.8668085 11.1997607 3.8668085 11.1997607 6 13 C6.66 12.67 7.32 12.34 8 12 C8.33 13.65 8.66 15.3 9 17 C10.65 17 12.3 17 14 17 C14 17.33 14 17.66 14 18 C7.77464789 19.46478873 7.77464789 19.46478873 4.1875 17.3125 C0.46913563 13.38165766 -0.25335188 10.64077878 -0.125 5.25 C-0.09792969 3.77273437 -0.09792969 3.77273437 -0.0703125 2.265625 C-0.04710937 1.51796875 -0.02390625 0.7703125 0 0 Z " fill="#544BCC" transform="translate(174,72)"/>
<path d="M0 0 C8.21921697 3.75423214 16.53611673 11.85798274 20.4375 20 C20.623125 20.66 20.80875 21.32 21 22 C18.5625 20.8125 18.5625 20.8125 16 19 C15.1875 16.3125 15.1875 16.3125 15 14 C14.401875 13.9175 13.80375 13.835 13.1875 13.75 C9.69914389 12.55399219 8.52293572 9.79577174 6.5625 6.8125 C4.76289534 4.7249586 3.68501595 4.37034703 1 4 C0.67 2.68 0.34 1.36 0 0 Z " fill="#587CD4" transform="translate(278,23)"/>
<path d="M0 0 C0.99 0.33 1.98 0.66 3 1 C-1.69766975 6.66129431 -6.74723372 11.85228904 -12 17 C-12.66 16.01 -13.32 15.02 -14 14 C-13.01 14 -12.02 14 -11 14 C-10.9175 13.2575 -10.835 12.515 -10.75 11.75 C-9.8603054 8.48778646 -8.51496251 7.19045122 -6 5 C-5.01 5.33 -4.02 5.66 -3 6 C-3 4.68 -3 3.36 -3 2 C-2.01 2 -1.02 2 0 2 C0 1.34 0 0.68 0 0 Z " fill="#6170D9" transform="translate(227,46)"/>
<path d="M0 0 C0.66 0 1.32 0 2 0 C2.33 0.99 2.66 1.98 3 3 C1.35208173 5.14633496 -0.51950659 6.9568461 -2.43359375 8.8671875 C-4.32851793 11.44730871 -4.31076898 12.8705019 -4 16 C-5.32 15.67 -6.64 15.34 -8 15 C-7.52583422 10.02125936 -6.0900669 6.93281242 -3 3 C-2.34 3 -1.68 3 -1 3 C-0.67 2.01 -0.34 1.02 0 0 Z " fill="#6262DF" transform="translate(206,66)"/>
<path d="M0 0 C7.98992213 -0.7833257 7.98992213 -0.7833257 12.0625 2.375 C14 5 14 5 14 7 C9.25 6.125 9.25 6.125 7 5 C7 5.66 7 6.32 7 7 C7.66 7 8.32 7 9 7 C9 7.66 9 8.32 9 9 C7.68 8.67 6.36 8.34 5 8 C5 6.02 5 4.04 5 2 C3.35 2.33 1.7 2.66 0 3 C0 2.01 0 1.02 0 0 Z " fill="#4749E2" transform="translate(291,67)"/>
<path d="M0 0 C2.31 0.66 4.62 1.32 7 2 C6.34 3.98 5.68 5.96 5 8 C4.34 7.67 3.68 7.34 3 7 C2.67 8.65 2.34 10.3 2 12 C0.35 11.67 -1.3 11.34 -3 11 C-2.01 10.67 -1.02 10.34 0 10 C-0.08378906 9.36191406 -0.16757812 8.72382812 -0.25390625 8.06640625 C-0.35574219 7.24011719 -0.45757812 6.41382812 -0.5625 5.5625 C-0.66691406 4.73878906 -0.77132813 3.91507812 -0.87890625 3.06640625 C-0.91886719 2.38449219 -0.95882813 1.70257813 -1 1 C-0.67 0.67 -0.34 0.34 0 0 Z " fill="#4945E1" transform="translate(282,72)"/>
<path d="M0 0 C0.99 0 1.98 0 3 0 C3 4.62 3 9.24 3 14 C3.99 14 4.98 14 6 14 C4.63016497 17.16115776 4.0109362 17.9927092 1 20 C0.67 13.4 0.34 6.8 0 0 Z " fill="#6C58C5" transform="translate(235,92)"/>
<path d="M0 0 C0.99 0.33 1.98 0.66 3 1 C1.44073299 6.07591176 -0.22145029 10.45328229 -3 15 C-3.70670728 17.69254991 -3.70670728 17.69254991 -4 20 C-5.4606285 17.35261084 -6 16.10551666 -6 13 C-5.34 13 -4.68 13 -4 13 C-4 11.68 -4 10.36 -4 9 C-3.34 9 -2.68 9 -2 9 C-1.34 6.03 -0.68 3.06 0 0 Z " fill="#6F5CCA" transform="translate(301,99)"/>
<path d="M0 0 C3.39481213 3.67771314 3 4.37027604 3 10 C-0.96 10 -4.92 10 -9 10 C-8.67 9.01 -8.34 8.02 -8 7 C-5.33333333 7 -2.66666667 7 0 7 C0 4.69 0 2.38 0 0 Z " fill="#4C5FD7" transform="translate(299,45)"/>
<path d="M0 0 C7.92 0 15.84 0 24 0 C21.9957983 4.0084034 20.50944037 5.41409657 17 8 C17 6.68 17 5.36 17 4 C17.99 4 18.98 4 20 4 C20 3.01 20 2.02 20 1 C13.4 1 6.8 1 0 1 C0 0.67 0 0.34 0 0 Z " fill="#574CBF" transform="translate(240,83)"/>
<path d="M0 0 C0.99 0.66 1.98 1.32 3 2 C2.360625 2.5775 1.72125 3.155 1.0625 3.75 C-0.98223868 5.98062401 -1.58205199 7.07436391 -2 10 C-4.31 10 -6.62 10 -9 10 C-8.06409496 8.8944811 -7.12620142 7.79064547 -6.1875 6.6875 C-5.66542969 6.07261719 -5.14335937 5.45773438 -4.60546875 4.82421875 C-3.12827531 3.14575321 -1.59960869 1.56117966 0 0 Z " fill="#594DCC" transform="translate(278,82)"/>
<path d="M0 0 C6.6 0 13.2 0 20 0 C20 0.99 20 1.98 20 3 C19.01 3 18.02 3 17 3 C17 4.65 17 6.3 17 8 C16.67 8 16.34 8 16 8 C16 6.02 16 4.04 16 2 C12.7 1.67 9.4 1.34 6 1 C6 1.66 6 2.32 6 3 C4.68 3 3.36 3 2 3 C2 2.34 2 1.68 2 1 C1.34 0.67 0.68 0.34 0 0 Z " fill="#4E42D3" transform="translate(240,84)"/>
<path d="M0 0 C0.33 1.32 0.66 2.64 1 4 C2.65 3.34 4.3 2.68 6 2 C5.57742724 3.4835001 5.13643678 4.96176424 4.6875 6.4375 C4.44386719 7.26121094 4.20023437 8.08492187 3.94921875 8.93359375 C3.63597656 9.61550781 3.32273437 10.29742187 3 11 C2.01 11.33 1.02 11.66 0 12 C0 8.04 0 4.08 0 0 Z " fill="#E8E8F8" transform="translate(307,75)"/>
<path d="M0 0 C3.85025879 0.60355408 6.86101159 1.76772603 10.3125 3.5625 C11.19550781 4.01753906 12.07851563 4.47257812 12.98828125 4.94140625 C13.65214844 5.29074219 14.31601562 5.64007813 15 6 C13.68 6.99 12.36 7.98 11 9 C9 8 9 8 8 5 C6.1346755 3.98245132 6.1346755 3.98245132 3.9375 3.3125 C3.20402344 3.06113281 2.47054688 2.80976563 1.71484375 2.55078125 C1.14894531 2.36902344 0.58304687 2.18726563 0 2 C0 1.34 0 0.68 0 0 Z " fill="#577EDB" transform="translate(262,15)"/>
<path d="M0 0 C0.33 0.66 0.66 1.32 1 2 C0.01 3.485 0.01 3.485 -1 5 C-1 4.34 -1 3.68 -1 3 C-2.65 4.32 -4.3 5.64 -6 7 C-7.5 5.6875 -7.5 5.6875 -9 4 C-9 3.01 -9 2.02 -9 1 C-4.545 0.505 -4.545 0.505 0 0 Z " fill="#434CE2" transform="translate(209,63)"/>
<path d="M0 0 C0.33 0 0.66 0 1 0 C1 7.59 1 15.18 1 23 C0.67 23 0.34 23 0 23 C-0.06058594 22.14277344 -0.12117187 21.28554687 -0.18359375 20.40234375 C-0.61143536 14.56395127 -1.059163 8.77942728 -2 3 C-1.34 3 -0.68 3 0 3 C0 2.01 0 1.02 0 0 Z " fill="#5436BA" transform="translate(226,101)"/>
<path d="M0 0 C0.33 1.32 0.66 2.64 1 4 C-4.75 9 -4.75 9 -7 9 C-7 9.66 -7 10.32 -7 11 C-7.66 10.67 -8.32 10.34 -9 10 C-8.06862408 8.70391053 -7.1296434 7.41328368 -6.1875 6.125 C-5.66542969 5.40570313 -5.14335937 4.68640625 -4.60546875 3.9453125 C-3 2 -3 2 0 0 Z " fill="#5878D7" transform="translate(195,29)"/>
<path d="M0 0 C0.99 0 1.98 0 3 0 C3.36552803 1.41377782 3.71695495 2.83120576 4.0625 4.25 C4.25972656 5.03890625 4.45695313 5.8278125 4.66015625 6.640625 C5.01497267 9.10394822 4.76877544 10.65604132 4 13 C3.13372601 11.40233897 2.28233535 9.79660056 1.4375 8.1875 C0.96183594 7.29417969 0.48617187 6.40085937 -0.00390625 5.48046875 C-1 3 -1 3 0 0 Z " fill="#654EC3" transform="translate(180,102)"/>
<path d="M0 0 C4 4.32432432 4 4.32432432 4 7 C2 7 2 7 0.5 5.625 C0.005 5.08875 -0.49 4.5525 -1 4 C-1.66 3.34 -2.32 2.68 -3 2 C-3 1.67 -3 1.34 -3 1 C-5.31 0.67 -7.62 0.34 -10 0 C-10 -0.33 -10 -0.66 -10 -1 C-5.95202225 -2.15656507 -3.69172878 -2.08251367 0 0 Z " fill="#6062CC" transform="translate(303,67)"/>
<path d="M0 0 C1.49008836 4.47026507 -0.23335529 7.76311182 -2 12 C-3.6875 14.5625 -3.6875 14.5625 -5 16 C-4.16095275 10.26651049 -3.24799283 4.87198924 0 0 Z " fill="#4D63D9" transform="translate(185,40)"/>
<path d="M0 0 C0.66 0 1.32 0 2 0 C2.33 1.32 2.66 2.64 3 4 C0.69 4.66 -1.62 5.32 -4 6 C-4.33 5.01 -4.66 4.02 -5 3 C-4.67 2.34 -4.34 1.68 -4 1 C-2.02 1.495 -2.02 1.495 0 2 C0 1.34 0 0.68 0 0 Z " fill="#5F24D1" transform="translate(277,128)"/>
<path d="M0 0 C2.32590854 3.63423209 2.16265833 6.77088331 2 11 C1.01 10.67 0.02 10.34 -1 10 C-1 8.02 -1 6.04 -1 4 C-3.475 3.01 -3.475 3.01 -6 2 C-3 0 -3 0 0 0 Z " fill="#605ECF" transform="translate(280,71)"/>
<path d="M0 0 C1.65 0 3.3 0 5 0 C5.33 0.99 5.66 1.98 6 3 C4.35 3.33 2.7 3.66 1 4 C1 5.32 1 6.64 1 8 C0.01 7.67 -0.98 7.34 -2 7 C-1.34 4.69 -0.68 2.38 0 0 Z " fill="#3363EF" transform="translate(243,24)"/>
<path d="M0 0 C2 3 2 3 2 5 C3.65 5 5.3 5 7 5 C7 5.33 7 5.66 7 6 C3.8125 6.8125 3.8125 6.8125 0 7 C-2.9375 4.5625 -2.9375 4.5625 -5 2 C-3.68 2.33 -2.36 2.66 -1 3 C-0.67 2.01 -0.34 1.02 0 0 Z " fill="#5E51CE" transform="translate(181,84)"/>
<path d="M0 0 C0.99 0.33 1.98 0.66 3 1 C1.50902342 4.7952131 -0.75700849 6.61042731 -4 9 C-4.33 7.35 -4.66 5.7 -5 4 C-4.0409375 3.8453125 -4.0409375 3.8453125 -3.0625 3.6875 C-2.381875 3.460625 -1.70125 3.23375 -1 3 C-0.67 2.01 -0.34 1.02 0 0 Z " fill="#5A79DE" transform="translate(241,31)"/>
<path d="M0 0 C0.33 0.66 0.66 1.32 1 2 C0.0625 4.625 0.0625 4.625 -1 7 C-2.98 7 -4.96 7 -7 7 C-4.78071806 4.09197539 -3.07030857 2.04687238 0 0 Z " fill="#717BD8" transform="translate(230,59)"/>
<path d="M0 0 C0.66 0.33 1.32 0.66 2 1 C-0.475 5.455 -0.475 5.455 -3 10 C-3.66 9.67 -4.32 9.34 -5 9 C-3.375 2.25 -3.375 2.25 0 0 Z " fill="#4554D6" transform="translate(234,56)"/>
<path d="M0 0 C0.66 0.33 1.32 0.66 2 1 C1.34 2.98 0.68 4.96 0 7 C-2.66666667 7 -5.33333333 7 -8 7 C-5.36 4.69 -2.72 2.38 0 0 Z " fill="#5B7FDA" transform="translate(204,21)"/>
<path d="M0 0 C0 0.99 0 1.98 0 3 C-2.39763185 5.39763185 -3.33273498 5.34280586 -6.625 5.625 C-7.44226563 5.69976563 -8.25953125 5.77453125 -9.1015625 5.8515625 C-9.72804687 5.90054687 -10.35453125 5.94953125 -11 6 C-7.58983503 3.13546142 -4.09305456 1.65296434 0 0 Z " fill="#5D84DC" transform="translate(217,15)"/>
<path d="M0 0 C0.33 0.99 0.66 1.98 1 3 C2.32 3 3.64 3 5 3 C5 3.66 5 4.32 5 5 C4.34 5 3.68 5 3 5 C3 6.32 3 7.64 3 9 C2.01 9 1.02 9 0 9 C0 6.03 0 3.06 0 0 Z " fill="#5337D5" transform="translate(238,97)"/>
<path d="M0 0 C0.66 0 1.32 0 2 0 C2 2.97 2 5.94 2 9 C0.68 8.67 -0.64 8.34 -2 8 C-1.125 2.25 -1.125 2.25 0 0 Z " fill="#5A55CB" transform="translate(200,73)"/>
<path d="M0 0 C2.32590854 3.63423209 2.16265833 6.77088331 2 11 C1.34 10.67 0.68 10.34 0 10 C-0.33333333 8.66666667 -0.66666667 7.33333333 -1 6 C-1.66 5.67 -2.32 5.34 -3 5 C-3 4.34 -3 3.68 -3 3 C-2.01 3 -1.02 3 0 3 C0 2.01 0 1.02 0 0 Z " fill="#7148C7" transform="translate(299,126)"/>
<path d="M0 0 C0.99 0 1.98 0 3 0 C3 0.66 3 1.32 3 2 C3.99 2.33 4.98 2.66 6 3 C7.6875 5.5625 7.6875 5.5625 9 8 C8.01 8 7.02 8 6 8 C4.39453125 6.25 4.39453125 6.25 2.8125 4 C2.28269531 3.2575 1.75289062 2.515 1.20703125 1.75 C0.80871094 1.1725 0.41039062 0.595 0 0 Z " fill="#7151BE" transform="translate(187,118)"/>
<path d="M0 0 C3.39417765 3.12621626 5.6062718 5.56541027 7 10 C4.625 8.9375 4.625 8.9375 2 7 C0.6875 3.3125 0.6875 3.3125 0 0 Z " fill="#6F86DB" transform="translate(292,35)"/>
<path d="M0 0 C1.32 0 2.64 0 4 0 C3.67 1.32 3.34 2.64 3 4 C0.69 3.67 -1.62 3.34 -4 3 C-2.68 2.67 -1.36 2.34 0 2 C0 1.34 0 0.68 0 0 Z " fill="#7A4AC2" transform="translate(226,140)"/>
<path d="M0 0 C2 3.75 2 3.75 2 6 C-0.3431213 5.74438677 -2.67843403 5.40729228 -5 5 C-5.33 4.34 -5.66 3.68 -6 3 C-4.02 3 -2.04 3 0 3 C0 2.01 0 1.02 0 0 Z " fill="#7F5CBC" transform="translate(301,134)"/>
<path d="M0 0 C1.32 0.33 2.64 0.66 4 1 C3.67 1.99 3.34 2.98 3 4 C1.35 4.33 -0.3 4.66 -2 5 C-1.34 3.35 -0.68 1.7 0 0 Z " fill="#5E26C6" transform="translate(285,130)"/>
<path d="M0 0 C0.66 0 1.32 0 2 0 C1.40049704 3.68266103 0.75241109 7.34543185 0 11 C-1.4606285 8.35261084 -2 7.10551666 -2 4 C-1.34 4 -0.68 4 0 4 C0 2.68 0 1.36 0 0 Z " fill="#6C52C5" transform="translate(297,108)"/>
<path d="M0 0 C0 3.16880694 -0.2058242 4.43689172 -2 7 C-4.625 7.75 -4.625 7.75 -7 8 C-6.02133662 6.85373678 -5.04205413 5.70800212 -4.0625 4.5625 C-3.51722656 3.92441406 -2.97195313 3.28632812 -2.41015625 2.62890625 C-1.63204305 1.73008851 -0.84063472 0.84063472 0 0 Z " fill="#6251C0" transform="translate(268,92)"/>
<path d="M0 0 C2.05078125 0.03255208 4.1015625 0.06510417 6.15234375 0.09765625 C5.82234375 1.08765625 5.49234375 2.07765625 5.15234375 3.09765625 C2.27734375 3.22265625 2.27734375 3.22265625 -0.84765625 3.09765625 C-1.50765625 2.43765625 -2.16765625 1.77765625 -2.84765625 1.09765625 C-1.84765625 0.09765625 -1.84765625 0.09765625 0 0 Z " fill="#4549EF" transform="translate(231.84765625,65.90234375)"/>
<path d="M0 0 C0.66 0 1.32 0 2 0 C1.5206753 4.31392226 0.2542015 6.16569547 -3 9 C-3 7.68 -3 6.36 -3 5 C-2.34 5 -1.68 5 -1 5 C-0.67 3.35 -0.34 1.7 0 0 Z " fill="#434EE1" transform="translate(180,56)"/>
<path d="M0 0 C0 0.66 0 1.32 0 2 C-0.886875 1.95875 -1.77375 1.9175 -2.6875 1.875 C-5.97277013 1.99897246 -8.05449295 2.61387904 -11 4 C-10.67 3.01 -10.34 2.02 -10 1 C-6.78548731 -0.60725635 -3.56387464 -0.05748185 0 0 Z " fill="#7047B9" transform="translate(283,133)"/>
<path d="M0 0 C2.46800047 1.15173355 4.04783565 2.04783565 6 4 C5.67 4.99 5.34 5.98 5 7 C2.5 5.1875 2.5 5.1875 0 3 C0 2.01 0 1.02 0 0 Z " fill="#506ED4" transform="translate(286,30)"/>
<path d="M0 0 C0.66 0.66 1.32 1.32 2 2 C0.25 5.875 0.25 5.875 -2 7 C-2.33 5.35 -2.66 3.7 -3 2 C-2.01 1.34 -1.02 0.68 0 0 Z " fill="#456DE4" transform="translate(246,26)"/>
<path d="M0 0 C0.66 0.33 1.32 0.66 2 1 C2 1.99 2 2.98 2 4 C1.34 4.66 0.68 5.32 0 6 C-0.99 6 -1.98 6 -3 6 C-3 3 -3 3 -1.5 1.3125 C-0.7575 0.6628125 -0.7575 0.6628125 0 0 Z " fill="#513CD6" transform="translate(271,91)"/>
<path d="M0 0 C0.33 1.32 0.66 2.64 1 4 C-1.31 4.66 -3.62 5.32 -6 6 C-4 4 -2 2 0 0 Z " fill="#7783DF" transform="translate(238,51)"/>
<path d="M0 0 C0.99 0.99 1.98 1.98 3 3 C1.35 4.32 -0.3 5.64 -2 7 C-1.125 1.125 -1.125 1.125 0 0 Z " fill="#676FDA" transform="translate(211,61)"/>
<path d="M0 0 C0.99 0.33 1.98 0.66 3 1 C-0.465 3.97 -0.465 3.97 -4 7 C-4 6.01 -4 5.02 -4 4 C-3.34 4 -2.68 4 -2 4 C-1.34 2.68 -0.68 1.36 0 0 Z " fill="#6D85DB" transform="translate(234,40)"/>
<path d="M0 0 C0.66 0.66 1.32 1.32 2 2 C1.625 4.625 1.625 4.625 1 7 C0.67 7 0.34 7 0 7 C0 4.69 0 2.38 0 0 Z " fill="#DEDEDE" transform="translate(124,233)"/>
<path d="M0 0 C0.33 0 0.66 0 1 0 C1 1.65 1 3.3 1 5 C0.34 5 -0.32 5 -1 5 C-0.67 3.35 -0.34 1.7 0 0 Z " fill="#F1F1F0" transform="translate(307,99)"/>
<path d="M0 0 C0.99 0.495 0.99 0.495 2 1 C2 1.66 2 2.32 2 3 C1.34 3 0.68 3 0 3 C0 2.01 0 1.02 0 0 Z " fill="#ECECEC" transform="translate(394,247)"/>
<path d="M0 0 C0.99 0.33 1.98 0.66 3 1 C2.01 1 1.02 1 0 1 C0 0.67 0 0.34 0 0 Z " fill="#EEEEEE" transform="translate(118,226)"/>
<path d="M0 0 C4 1 4 1 4 1 Z " fill="#E5E5E5" transform="translate(114,225)"/>
<path d="M0 0 C3 1 3 1 3 1 Z " fill="#CDCDCD" transform="translate(108,225)"/>
<path d="M0 0 C2 1 2 1 2 1 Z " fill="#6F6F6F" transform="translate(93,235)"/>
<path d="M0 0 C2 1 2 1 2 1 Z " fill="#FFFFFF" transform="translate(112,224)"/>
<path d="" fill="#000000" transform="translate(0,0)"/>
<path d="" fill="#000000" transform="translate(0,0)"/>
<path d="" fill="#D8D8D8" transform="translate(0,0)"/>
<path d="" fill="#D5D5D5" transform="translate(0,0)"/>
<path d="" fill="#FFFFFF" transform="translate(0,0)"/>
<path d="" fill="#FFFFFF" transform="translate(0,0)"/>
</svg>
