<!DOCTYPE svg PUBLIC "-//W3C//DTD SVG 20010904//EN" "http://www.w3.org/TR/2001/REC-SVG-20010904/DTD/svg10.dtd"[]><svg version="1.0" xmlns="http://www.w3.org/2000/svg" width="111" height="27" viewBox="0 0 412.000000 100.000000" preserveAspectRatio="xMidYMid meet"><metadata>Created by potrace 1.16, written by Peter Selinger 2001-2019</metadata><g transform="translate(0.000000,100.000000) scale(0.100000,-0.100000)" fill="#000000" stroke="none"><path d="M108 885 c-19 -11 -29 -26 -34 -52 -6 -34 6 -63 148 -342 141 -278 159 -308 191 -324 32 -16 39 -16 70 -3 32 13 46 37 191 325 86 171 156 319 156 330 0 11 -12 33 -26 50 -35 42 -89 43 -126 4 -14 -16 -72 -120 -128 -233 l-103 -205 -104 210 c-57 115 -113 220 -125 232 -25 27 -69 30 -110 8z" /><path d="M909 870 l-30 -29 3 -315 3 -314 24 -26 c13 -14 36 -28 52 -31 32 -7 83 16 99 44 6 12 10 138 10 334 l0 314 -25 27 c-35 38 -96 37 -136 -4z" /><path d="M1161 874 l-31 -26 0 -317 c0 -347 0 -346 60 -371 24 -10 36 -10 59 0 62 25 64 33 66 228 1 97 3 181 3 186 1 6 98 -85 215 -201 116 -116 222 -214 235 -217 35 -11 90 12 108 45 12 25 14 78 12 340 l-3 311 -28 24 c-37 32 -87 32 -124 0 l-28 -24 -5 -185 -5 -186 -120 116 c-66 64 -163 158 -216 210 -85 82 -100 93 -132 93 -24 0 -46 -9 -66 -26z" /><path d="M2099 884 c-62 -19 -135 -84 -149 -132 -12 -46 -13 -422 -1 -455 15 -38 71 -88 131 -116 53 -25 62 -26 240 -26 l185 0 66 31 c43 21 76 45 95 70 l29 37 3 224 c3 212 2 225 -18 261 -25 45 -102 100 -156 113 -63 14 -372 9 -425 -7z m421 -354 l0 -190 -200 0 -200 0 0 190 0 190 200 0 200 0 0 -190z" /><path d="M3344 881 c-26 -21 -324 -612 -324 -642 0 -29 27 -65 59 -79 23 -9 36 -8 64 3 33 14 44 32 144 231 59 119 110 216 113 216 3 0 54 -97 113 -215 89 -178 113 -218 138 -231 19 -9 41 -13 56 -9 36 9 73 50 73 80 0 32 -283 600 -318 638 -31 32 -85 36 -118 8z" /><path d="M3863 876 l-28 -24 0 -321 0 -321 25 -25 c37 -37 78 -41 120 -13 29 20 36 32 42 73 12 79 3 587 -11 613 -26 48 -102 57 -148 18z" /></g></svg>